<svg width="97" height="97" viewBox="0 0 97 97" fill="none" xmlns="http://www.w3.org/2000/svg">
<circle cx="48.5" cy="48.5" r="43.5" fill="#AECA1D"/>
<circle cx="48.5" cy="48.5" r="45.85" stroke="black" stroke-opacity="0.9" stroke-width="4.7"/>
<path d="M32.1552 39.1336L48.5 48.5925L64.7338 39.1891" stroke="black" stroke-width="1.5" stroke-linecap="round" stroke-linejoin="round"/>
<path d="M48.5 65.3631V48.574" stroke="black" stroke-width="1.5" stroke-linecap="round" stroke-linejoin="round"/>
<path d="M44.6683 29.9524L34.7836 35.4501C32.5438 36.6903 30.7113 39.8 30.7113 42.3545V52.8131C30.7113 55.3675 32.5438 58.4773 34.7836 59.7175L44.6683 65.2152C46.7785 66.3814 50.24 66.3814 52.3502 65.2152L62.2349 59.7175C64.4747 58.4773 66.3072 55.3675 66.3072 52.8131V42.3545C66.3072 39.8 64.4747 36.6903 62.2349 35.4501L52.3502 29.9524C50.2215 28.7677 46.7785 28.7677 44.6683 29.9524Z" stroke="black" stroke-width="1.5" stroke-linecap="round" stroke-linejoin="round"/>
<path d="M57.7553 49.8697V43.0949L40.1887 32.951" stroke="black" stroke-width="1.5" stroke-linecap="round" stroke-linejoin="round"/>
</svg>
