<svg width="126" height="127" viewBox="0 0 126 127" fill="none" xmlns="http://www.w3.org/2000/svg">
<rect x="22.9858" y="86.37" width="45.5869" height="80.0111" rx="21.4947" transform="rotate(-89.941 22.9858 86.37)" fill="#F7FCF4"/>
<rect x="25.5021" y="84.8856" width="42.6127" height="74.791" rx="20.0924" transform="rotate(-89.941 25.5021 84.8856)" fill="black" fill-opacity="0.1"/>
<rect x="38.5459" y="78.2459" width="28.098" height="49.3158" rx="13.2485" transform="rotate(-91.0699 38.5459 78.2459)" fill="black"/>
<rect x="38.8745" y="77.9049" width="27.4283" height="48.6461" rx="12.9137" transform="rotate(-91.0699 38.8745 77.9049)" stroke="white" stroke-opacity="0.36" stroke-width="0.669745"/>
<path d="M52.5122 56.5837L62.0495 56.3271L71.1105 56.0595C71.1105 56.0595 79.4276 55.5643 79.5304 62.9257C79.6395 70.7406 71.0136 70.5927 71.0136 70.5927L62.4289 70.8712L52.6589 70.8842C52.6589 70.8842 45.5141 70.7194 45.4353 63.8073C45.3564 56.8951 52.5122 56.5837 52.5122 56.5837Z" fill="white"/>
<path d="M62.4289 70.8712L62.0495 56.3271M62.4289 70.8712L52.6589 70.8842C52.6589 70.8842 45.5141 70.7194 45.4353 63.8073C45.3564 56.8951 52.5122 56.5837 52.5122 56.5837L62.0495 56.3271M62.4289 70.8712L71.0136 70.5927C71.0136 70.5927 79.6395 70.7406 79.5304 62.9257C79.4276 55.5643 71.1105 56.0595 71.1105 56.0595L62.0495 56.3271" stroke="#AECA1D" stroke-width="0.669745"/>
</svg>
