<svg width="47" height="47" viewBox="0 0 47 47" fill="none" xmlns="http://www.w3.org/2000/svg">
<circle cx="23.5" cy="23.5" r="18.5" fill="#AECA1D"/>
<circle cx="23.5" cy="23.5" r="20.85" stroke="black" stroke-opacity="0.9" stroke-width="4.7"/>
<path d="M16.5487 19.5166L23.5 23.5394L30.404 19.5402" stroke="black" stroke-width="1.5" stroke-linecap="round" stroke-linejoin="round"/>
<path d="M23.5 30.6717V23.5315" stroke="black" stroke-width="1.5" stroke-linecap="round" stroke-linejoin="round"/>
<path d="M21.8704 15.6119L17.6666 17.95C16.714 18.4775 15.9347 19.8 15.9347 20.8864V25.3343C15.9347 26.4207 16.714 27.7432 17.6666 28.2706L21.8704 30.6088C22.7679 31.1047 24.24 31.1047 25.1374 30.6088L29.3413 28.2706C30.2938 27.7432 31.0732 26.4207 31.0732 25.3343V20.8864C31.0732 19.8 30.2938 18.4775 29.3413 17.95L25.1374 15.6119C24.2321 15.1081 22.7679 15.1081 21.8704 15.6119Z" stroke="black" stroke-width="1.5" stroke-linecap="round" stroke-linejoin="round"/>
<path d="M27.4362 24.0826V21.2013L19.9653 16.8872" stroke="black" stroke-width="1.5" stroke-linecap="round" stroke-linejoin="round"/>
</svg>
